<?xml version="1.0" encoding="UTF-8"?>
<svg id="Layer_2" data-name="Layer 2" xmlns="http://www.w3.org/2000/svg" viewBox="0 0 869.57 329.49">
  <defs>
    <style>
      .cls-1 {
        fill: #00346d;
      }

      .cls-2 {
        fill: #b6d7ff;
      }
    </style>
  </defs>
  <g id="Layer_1-2" data-name="Layer 1">
    <g>
      <g>
        <g>
          <path class="cls-1" d="M80.93,74.34v194.92h-27.11V81.34H0v-27.11h60.81c11.11,0,20.12,9.01,20.12,20.12Z"/>
          <path class="cls-2" d="M108.04,71.38v228.25h-27.11V74.34c0-11.1-9-20.12-20.12-20.12H27.11v-27.11h36.68c24.44,0,44.25,19.81,44.25,44.27Z"/>
          <path class="cls-1" d="M135.16,329.49h-27.11V71.38c0-24.45-19.82-44.26-44.26-44.26h-9.55V0h11.8c38.18,0,69.13,30.95,69.13,69.13v260.36Z"/>
        </g>
        <path class="cls-1" d="M258.36,310.28c-80.25,0-145.54-65.29-145.54-145.54S178.11,19.21,258.36,19.21c17.71,0,35.02,3.16,51.47,9.4,23.52,8.92,44.48,23.92,60.61,43.39l-18.48,15.32c-13.49-16.28-31-28.82-50.64-36.26-13.72-5.2-28.17-7.84-42.96-7.84-67.01,0-121.53,54.52-121.53,121.53s54.52,121.53,121.53,121.53c14.92,0,29.5-2.68,43.32-7.98,19.48-7.46,36.85-19.94,50.25-36.09l18.48,15.32c-16.03,19.33-36.83,34.26-60.15,43.19-16.57,6.35-34.04,9.57-51.91,9.57Z"/>
        <path class="cls-2" d="M258.36,286.28c-67.01,0-121.53-54.52-121.53-121.53s54.52-121.53,121.53-121.53c29.46,0,57.9,10.72,80.07,30.18l-15.83,18.05c-17.79-15.61-40.61-24.21-64.24-24.21-53.78,0-97.53,43.75-97.53,97.52s43.75,97.52,97.53,97.52c23.62,0,46.43-8.59,64.22-24.19l15.83,18.05c-22.17,19.44-50.6,30.15-80.04,30.15Z"/>
        <path class="cls-1" d="M258.36,262.27c-53.78,0-97.53-43.75-97.53-97.52s43.75-97.52,97.53-97.52c14.22,0,27.95,3.01,40.79,8.95,34.46,15.93,56.73,50.7,56.73,88.58s-22.04,72.27-56.15,88.31c-13.01,6.12-26.93,9.22-41.38,9.22ZM258.36,91.23c-40.54,0-73.52,32.98-73.52,73.52s32.98,73.52,73.52,73.52c10.89,0,21.38-2.33,31.16-6.94,25.73-12.1,42.35-38.23,42.35-66.58s-16.8-54.77-42.8-66.79c-9.67-4.47-20-6.73-30.72-6.73Z"/>
        <g>
          <rect class="cls-1" x="246.36" width="24.01" height="43.21"/>
          <rect class="cls-1" x="246.36" y="286.28" width="24.01" height="43.21"/>
        </g>
      </g>
      <g>
        <path class="cls-1" d="M467.74,136.22h21.79c7.08,0,12.5-1.6,16.29-4.81,3.78-3.21,6.18-7.71,7.2-13.52l3.48-20h-21.63l-3.08,17.77c-.32,1.85-.89,3.15-1.7,3.89-.81.74-2.27,1.11-4.38,1.11h-8.76c-1.99,0-3.29-.37-3.91-1.11-.62-.74-.77-2.04-.45-3.89l13.12-75.91c.34-1.97.94-3.3,1.81-3.98.86-.68,2.29-1.02,4.29-1.02h8.78c2.12,0,3.46.34,4.03,1.02.56.68.68,2.01.34,3.98l-3.15,18.15h21.65l3.55-20.37c1.01-5.8.17-10.31-2.51-13.52-2.68-3.21-7.57-4.81-14.68-4.81h-21.87c-7.1,0-12.55,1.61-16.34,4.81-3.79,3.21-6.19,7.72-7.18,13.52l-13.83,80.36c-1,5.8-.16,10.31,2.52,13.52,2.67,3.21,7.55,4.81,14.63,4.81Z"/>
        <path class="cls-1" d="M528.76,131.22c2.67,3.21,7.54,4.81,14.61,4.81h19.36c7.08,0,12.51-1.6,16.3-4.81,3.79-3.21,6.2-7.71,7.23-13.52l1.63-9.26h-20.5l-1.2,6.85c-.33,1.85-.9,3.15-1.71,3.89-.81.74-2.28,1.11-4.39,1.11h-8.57c-1.99,0-3.29-.34-3.92-1.02-.63-.68-.77-2.01-.42-3.98l3.28-18.7h39.71l2.39-13.52h0l3.46-19.63c1.02-5.8.23-10.3-2.38-13.52-2.61-3.21-7.46-4.81-14.56-4.81h-19.79c-7.1,0-12.54,1.61-16.34,4.81-3.8,3.21-6.2,7.72-7.21,13.52l-9.47,54.25c-1.01,5.8-.19,10.31,2.48,13.52ZM557.7,61.7c.87-.68,2.29-1.02,4.29-1.02h8.96c2.11,0,3.45.34,4.02,1.02.56.68.67,2.01.33,3.98l-3.06,17.4h-19.4l3.05-17.4c.35-1.97.95-3.3,1.82-3.98Z"/>
        <path class="cls-1" d="M629.19,73.27h0l1.02-5.74c.39-2.22,1.14-3.8,2.24-4.72,1.1-.93,2.64-1.39,4.63-1.39h5.6c2.11,0,3.45.34,4.02,1.02.56.68.67,2.01.32,3.98l-12.4,69.62h21.23l12.98-72.58c1.04-5.8.32-10.3-2.16-13.52-2.48-3.21-7.08-4.81-13.8-4.81h-5.6c-4.36,0-7.99,1.14-10.88,3.43-1.61,1.27-2.89,2.91-3.86,4.89l1.48-8.32h-20.92l-16.08,90.91h21.04l11.15-62.77Z"/>
        <path class="cls-1" d="M710.75,45.13l2.93-16.29h-21.11l-2.92,16.29h-9.15l-2.92,16.29h9.15l-10.1,56.29c-1.04,5.8-.27,10.31,2.32,13.52,2.59,3.21,7.48,4.81,14.68,4.81h13.03l3.04-16.85h-6.89c-2.11,0-3.48-.34-4.1-1.02-.62-.68-.76-2.01-.4-3.98l9.5-52.77h12.5l2.94-16.29h-12.51Z"/>
        <path class="cls-1" d="M459.05,168.27l-43.71,116.83h21.31l8.35-24.26h25.51l.24,24.26h21.5l-4.36-116.83h-28.83ZM450.55,244.74l19.26-55.92.54,55.92h-19.8Z"/>
        <path class="cls-1" d="M552.62,203.08c-.18-2.24-.88-4.06-2.11-5.46-2.02-2.28-5.19-3.43-9.53-3.43h-5.76c-6.57,0-11.65,1.61-15.24,4.81-3.6,3.21-5.9,7.72-6.91,13.52l-4.24,24.26h0l-4.82,27.59c-1.01,5.8-.29,10.31,2.18,13.52,2.46,3.21,6.97,4.81,13.52,4.81h5.74c4.32,0,7.89-1.14,10.7-3.43,1.39-1.13,2.53-2.55,3.44-4.27l-1,5.66h0l-1.53,8.7c-.33,1.85-.9,3.15-1.7,3.89-.81.74-2.27,1.11-4.36,1.11h-28.9l-2.78,15.92h34.99c7.04,0,12.44-1.61,16.22-4.81,3.78-3.21,6.18-7.72,7.2-13.52l1.6-9.07h0l15.66-88.69h-20.82l-1.56,8.88ZM543,255.66l-.78,4.44c-.41,2.35-1.13,3.98-2.16,4.91-1.03.93-2.59,1.39-4.69,1.39h-5.56c-1.98,0-3.27-.37-3.88-1.11-.61-.74-.76-2.04-.43-3.89l3.34-19.07h0l4.71-26.85c.35-1.97.95-3.3,1.81-3.98.86-.68,2.28-1.02,4.27-1.02h5.57c2.1,0,3.51.46,4.21,1.39.7.93.86,2.5.47,4.72l-.58,3.28-.43,2.46h0l-5.86,33.33h0Z"/>
        <path class="cls-1" d="M629.83,194.19h-19.7c-7.06,0-12.49,1.61-16.28,4.81-3.79,3.21-6.2,7.72-7.22,13.52l-9.6,54.25c-1.03,5.8-.22,10.31,2.43,13.52,2.64,3.21,7.49,4.81,14.53,4.81h19.27c7.04,0,12.45-1.6,16.24-4.81,3.79-3.21,6.2-7.71,7.24-13.52l1.66-9.26h-20.4l-1.22,6.85c-.33,1.85-.9,3.15-1.71,3.89-.81.74-2.27,1.11-4.37,1.11h-8.53c-1.98,0-3.28-.34-3.9-1.02-.62-.68-.76-2.01-.41-3.98l3.32-18.7h39.52l2.42-13.52h0l3.51-19.63c1.04-5.8.27-10.3-2.32-13.52-2.59-3.21-7.41-4.81-14.47-4.81ZM603.57,232.15l3.09-17.4c.35-1.97.96-3.3,1.82-3.98.86-.68,2.29-1.02,4.27-1.02h8.92c2.1,0,3.44.34,4,1.02.56.68.66,2.01.31,3.98l-3.1,17.4h-19.3Z"/>
        <path class="cls-1" d="M703.24,194.19h-5.58c-4.34,0-7.95,1.14-10.84,3.43-1.61,1.27-2.89,2.91-3.85,4.89l1.5-8.32h-20.81l-16.31,90.91h20.94l11.3-62.77h0l1.03-5.74c.4-2.22,1.15-3.8,2.24-4.72,1.1-.93,2.63-1.39,4.62-1.39h5.57c2.1,0,3.44.34,4,1.02.56.68.66,2.01.3,3.98l-12.57,69.62h21.12l13.16-72.58c1.05-5.8.35-10.3-2.1-13.52-2.46-3.21-7.03-4.81-13.72-4.81Z"/>
        <path class="cls-1" d="M769.01,224.74h20.61l2.24-12.22c1.07-5.8.31-10.3-2.26-13.52-2.57-3.21-7.45-4.81-14.64-4.81h-18.21c-7.19,0-12.65,1.61-16.39,4.81-3.74,3.21-6.14,7.72-7.19,13.52l-9.86,54.25c-1.05,5.8-.3,10.31,2.27,13.52,2.57,3.21,7.43,4.81,14.6,4.81h18.16c7.16,0,12.62-1.6,16.36-4.81,3.74-3.21,6.14-7.71,7.21-13.52l2.28-12.41h-20.59l-1.73,9.44c-.34,1.85-.92,3.15-1.73,3.89-.82.74-2.27,1.11-4.38,1.11h-6.67c-1.98,0-3.27-.37-3.88-1.11-.61-.74-.74-2.04-.4-3.89l8.82-48.33c.36-1.97.97-3.3,1.84-3.98.87-.68,2.29-1.02,4.27-1.02h6.69c2.1,0,3.44.34,3.99,1.02.55.68.65,2.01.29,3.98l-1.69,9.26Z"/>
        <path class="cls-1" d="M848.39,194.19l-25.03,69.99-.06-69.99h-21.74l4.65,87.58h10.01l-2.58,5.93c-1.22,2.59-2.74,4.32-4.57,5.18-1.83.86-4.04,1.3-6.63,1.3h-9.45l-2.97,16.11h12.41c7.41,0,13.4-1.7,17.98-5.09,4.58-3.4,8.19-8.24,10.84-14.53l38.33-96.47h-21.19Z"/>
      </g>
    </g>
  </g>
</svg>